<svg width="256" height="256" fill="none" xmlns="http://www.w3.org/2000/svg"><rect x="8" y="8" width="240" height="240" rx="23" fill="#242424"/><path fill-rule="evenodd" clip-rule="evenodd" d="m142.041 52.831-84.939 48.446a5 5 0 0 1-4.89.036L8 76.94v19.637l42.67 24.617a7.998 7.998 0 0 0 7.994.001l98.394-56.73c1.948-1.123 2.013-3.913.118-5.126l-9.963-6.376a5 5 0 0 0-5.172-.132Zm0 40.667-84.939 48.446a5.002 5.002 0 0 1-4.89.036L8 117.607v19.637l42.67 24.617a8 8 0 0 0 7.994.001l98.394-56.73c1.948-1.124 2.013-3.913.118-5.126l-9.963-6.376a5 5 0 0 0-5.172-.132Zm-84.939 88.446 84.939-48.446a4.999 4.999 0 0 1 5.172.132l9.963 6.376c1.895 1.213 1.83 4.002-.118 5.126l-98.394 56.73a8 8 0 0 1-7.994-.001L8 177.244v-19.637l44.211 24.373a5.002 5.002 0 0 0 4.891-.036Z" fill="#fff"/></svg>