<svg width="96" height="96" fill="none" xmlns="http://www.w3.org/2000/svg"><rect x="3" y="3" width="90" height="90" rx="5" fill="#242424"/><path fill-rule="evenodd" clip-rule="evenodd" d="M51.801 20.646 22.936 37.111a5 5 0 0 1-4.892.035L3 28.852v7.364l13.503 7.79a8 8 0 0 0 7.994.002l32.017-18.46c1.816-1.047 1.877-3.648.11-4.779a4.662 4.662 0 0 0-4.823-.122Zm0 15.25L22.936 52.362a5 5 0 0 1-4.892.035L3 44.103v7.363l13.503 7.79a8 8 0 0 0 7.994.002l32.017-18.46c1.816-1.047 1.877-3.648.11-4.779a4.662 4.662 0 0 0-4.823-.122ZM22.936 67.362 51.8 50.896a4.662 4.662 0 0 1 4.823.123c1.767 1.131 1.706 3.732-.11 4.78L24.496 74.257a8 8 0 0 1-7.994-.001L3 66.467v-7.364l15.044 8.293a5 5 0 0 0 4.892-.035Z" fill="#fff"/></svg>