<svg width="512" height="512" fill="none" xmlns="http://www.w3.org/2000/svg"><rect x="16" y="16" width="480" height="480" rx="23" fill="#242424"/><path fill-rule="evenodd" clip-rule="evenodd" d="m286.707 104.164-174.938 99.78a5 5 0 0 1-4.891.035L16 153.88v39.274l89.337 51.54a7.997 7.997 0 0 0 7.993.001l205.061-118.23c1.949-1.124 2.013-3.913.119-5.126l-26.63-17.043a5 5 0 0 0-5.173-.132Zm0 81.334-174.938 99.779a5 5 0 0 1-4.891.036L16 235.214v39.273l89.337 51.541a8 8 0 0 0 7.993.001l205.061-118.231c1.949-1.123 2.013-3.913.119-5.125l-26.63-17.043a5 5 0 0 0-5.173-.132ZM111.769 365.277l174.938-99.779a5 5 0 0 1 5.173.132l26.63 17.043c1.894 1.212 1.83 4.002-.119 5.125L113.33 406.029a8.002 8.002 0 0 1-7.993-.001L16 354.487v-39.273l90.878 50.099a5 5 0 0 0 4.891-.036Z" fill="#fff"/></svg>