<svg width="96" height="96" viewBox="0 0 96 96" fill="none" xmlns="http://www.w3.org/2000/svg">
<rect x="3" y="3" width="90" height="90" rx="5" fill="#242424"/>
<path fill-rule="evenodd" clip-rule="evenodd" d="M51.8015 20.6465L22.9356 37.1108C21.4227 37.9737 19.5698 37.9872 18.0445 37.1463L3 28.8525V36.2163L16.5035 44.0068C18.9769 45.4338 22.0234 45.4342 24.4972 44.0079L56.5135 25.5485C58.3305 24.5008 58.3908 21.9001 56.6241 20.7694C55.1644 19.8352 53.3069 19.7879 51.8015 20.6465ZM51.8015 35.8965L22.9356 52.3608C21.4227 53.2237 19.5698 53.2372 18.0445 52.3963L3 44.1026V51.4663L16.5035 59.2568C18.9769 60.6838 22.0234 60.6842 24.4972 59.2579L56.5135 40.7985C58.3305 39.7508 58.3908 37.1501 56.6241 36.0194C55.1644 35.0852 53.3069 35.0379 51.8015 35.8965ZM22.9356 67.3608L51.8015 50.8965C53.3069 50.0379 55.1644 50.0852 56.6241 51.0194C58.3908 52.1501 58.3305 54.7508 56.5135 55.7985L24.4972 74.2579C22.0234 75.6842 18.9769 75.6838 16.5035 74.2568L3 66.4663V59.1025L18.0445 67.3963C19.5698 68.2372 21.4227 68.2237 22.9356 67.3608Z" fill="white"/>
</svg>
