<svg width="128" height="128" viewBox="0 0 128 128" fill="none" xmlns="http://www.w3.org/2000/svg">
  <rect x="4" y="4" width="120" height="120" rx="23" fill="#242424" />
  <path fill-rule="evenodd" clip-rule="evenodd"
    d="M69.7072 27.1645L29.7689 49.9441C28.256 50.807 26.4031 50.8205 24.8778 49.9796L4 38.47V48.2884L23.3368 59.4443C25.8102 60.8712 28.8567 60.8716 31.3305 59.4454L76.3909 33.4652C78.3398 32.3416 78.4044 29.5521 76.5096 28.3394L74.8797 27.2963C73.3141 26.2943 71.3219 26.2435 69.7072 27.1645ZM69.7072 47.4978L29.7689 70.2774C28.256 71.1404 26.4031 71.1538 24.8778 70.313L4 58.8034V68.6218L23.3368 79.7776C25.8102 81.2046 28.8567 81.205 31.3305 79.7787L76.3909 53.7986C78.3398 52.6749 78.4044 49.8855 76.5096 48.6728L74.8797 47.6297C73.3141 46.6277 71.3219 46.5769 69.7072 47.4978ZM29.7689 90.2774L69.7072 67.4978C71.3219 66.5769 73.3141 66.6277 74.8797 67.6297L76.5096 68.6728C78.4044 69.8854 78.3398 72.6749 76.3909 73.7986L31.3305 99.7787C28.8567 101.205 25.8102 101.205 23.3368 99.7776L4 88.6218V78.8034L24.8778 90.313C26.4031 91.1538 28.256 91.1404 29.7689 90.2774Z"
    fill="white" />
</svg>