<svg width="256" height="256" viewBox="0 0 256 256" fill="none" xmlns="http://www.w3.org/2000/svg">
  <rect x="8" y="8" width="240" height="240" rx="23" fill="#242424" />
  <path fill-rule="evenodd" clip-rule="evenodd"
    d="M142.041 52.8311L57.1023 101.277C55.5894 102.14 53.7364 102.154 52.2111 101.313L8 76.9401V96.5769L50.6701 121.194C53.1435 122.621 56.19 122.622 58.6638 121.195L157.058 64.4652C159.006 63.3415 159.071 60.5521 157.176 59.3394L147.213 52.963C145.647 51.961 143.655 51.9102 142.041 52.8311ZM142.041 93.4978L57.1023 141.944C55.5894 142.807 53.7364 142.82 52.2111 141.98L8 117.607V137.244L50.6701 161.861C53.1435 163.288 56.19 163.288 58.6638 161.862L157.058 105.132C159.006 104.008 159.071 101.219 157.176 100.006L147.213 93.6297C145.647 92.6277 143.655 92.5769 142.041 93.4978ZM57.1023 181.944L142.041 133.498C143.655 132.577 145.647 132.628 147.213 133.63L157.176 140.006C159.071 141.219 159.006 144.008 157.058 145.132L58.6638 201.862C56.19 203.288 53.1435 203.288 50.6701 201.861L8 177.244V157.607L52.2111 181.98C53.7364 182.82 55.5894 182.807 57.1023 181.944Z"
    fill="white" />
</svg>