<svg width="512" height="512" viewBox="0 0 512 512" fill="none" xmlns="http://www.w3.org/2000/svg">
  <rect x="16" y="16" width="480" height="480" rx="23" fill="#242424" />
  <path fill-rule="evenodd" clip-rule="evenodd"
    d="M286.707 104.164L111.769 203.944C110.256 204.807 108.403 204.82 106.878 203.979L16 153.88V193.154L105.337 244.694C107.81 246.121 110.857 246.122 113.33 244.695L318.391 126.465C320.34 125.341 320.404 122.552 318.51 121.339L291.88 104.296C290.314 103.294 288.322 103.243 286.707 104.164ZM286.707 185.498L111.769 285.277C110.256 286.14 108.403 286.154 106.878 285.313L16 235.214V274.487L105.337 326.028C107.81 327.455 110.857 327.455 113.33 326.029L318.391 207.798C320.34 206.675 320.404 203.885 318.51 202.673L291.88 185.63C290.314 184.628 288.322 184.577 286.707 185.498ZM111.769 365.277L286.707 265.498C288.322 264.577 290.314 264.628 291.88 265.63L318.51 282.673C320.404 283.885 320.34 286.675 318.391 287.798L113.33 406.029C110.857 407.455 107.81 407.454 105.337 406.028L16 354.487V315.214L106.878 365.313C108.403 366.154 110.256 366.14 111.769 365.277Z"
    fill="white" />
</svg>